<svg width="15" height="14" viewBox="0 0 15 14" fill="none" xmlns="http://www.w3.org/2000/svg">
<path d="M6.55542 11.9735C7.88378 11.9732 9.17387 11.5285 10.2203 10.7103L13.5101 14L14.5684 12.9418L11.2785 9.65213C12.0972 8.60569 12.5422 7.31538 12.5425 5.98674C12.5425 2.6858 9.85654 0 6.55542 0C3.25431 0 0.568359 2.6858 0.568359 5.98674C0.568359 9.28768 3.25431 11.9735 6.55542 11.9735ZM6.55542 1.49669C9.03182 1.49669 11.0457 3.51048 11.0457 5.98674C11.0457 8.46301 9.03182 10.4768 6.55542 10.4768C4.07902 10.4768 2.06513 8.46301 2.06513 5.98674C2.06513 3.51048 4.07902 1.49669 6.55542 1.49669Z" fill="#252525"/>
</svg>
