<svg width="25" height="24" viewBox="0 0 25 24" fill="none" xmlns="http://www.w3.org/2000/svg">
<path d="M12.5684 0C5.95148 0 0.568359 5.38312 0.568359 12C0.568359 18.6169 5.95148 24 12.5684 24C19.1852 24 24.5684 18.6169 24.5684 12C24.5684 5.38312 19.1852 0 12.5684 0ZM18.2752 17.7069C18.0877 17.8943 17.8335 17.9995 17.5684 17.9995C17.3033 17.9995 17.049 17.8943 16.8615 17.7069L14.184 15.03C13.0528 15.8084 11.6716 16.1359 10.3114 15.9484C8.95119 15.7608 7.71016 15.0717 6.83186 14.0163C5.95355 12.9609 5.50138 11.6153 5.56407 10.2436C5.62676 8.87198 6.19979 7.57326 7.1707 6.60234C8.14162 5.63143 9.44034 5.0584 10.812 4.99571C12.1836 4.93302 13.5292 5.38519 14.5846 6.2635C15.6401 7.1418 16.3292 8.38283 16.5167 9.74305C16.7043 11.1033 16.3767 12.4845 15.5984 13.6156L18.2752 16.2931C18.4626 16.4806 18.5679 16.7349 18.5679 17C18.5679 17.2651 18.4626 17.5194 18.2752 17.7069Z" fill="#252525"/>
<path d="M11.0684 14C13.0014 14 14.5684 12.433 14.5684 10.5C14.5684 8.567 13.0014 7 11.0684 7C9.13536 7 7.56836 8.567 7.56836 10.5C7.56836 12.433 9.13536 14 11.0684 14Z" fill="#252525"/>
</svg>
