<svg width="120" height="121" viewBox="0 0 120 121" fill="none" xmlns="http://www.w3.org/2000/svg">
    <path
        d="M107.501 20.0161H94.1678V30.0161C94.1678 30.9792 93.9782 31.9328 93.6096 32.8225C93.2411 33.7122 92.7009 34.5206 92.02 35.2016C91.339 35.8825 90.5306 36.4227 89.6409 36.7912C88.7511 37.1598 87.7975 37.3495 86.8345 37.3495C85.8715 37.3495 84.9179 37.1598 84.0282 36.7912C83.1384 36.4227 82.33 35.8825 81.6491 35.2016C80.9681 34.5206 80.4279 33.7122 80.0594 32.8225C79.6909 31.9328 79.5012 30.9792 79.5012 30.0161V20.0161H40.6679V30.0161C40.6679 31.9611 39.8952 33.8263 38.52 35.2016C37.1447 36.5768 35.2794 37.3495 33.3345 37.3495C31.3896 37.3495 29.5243 36.5768 28.1491 35.2016C26.7738 33.8263 26.0012 31.9611 26.0012 30.0161V20.0161H12.6678C11.8746 20.0071 11.0876 20.1572 10.3534 20.4577C9.61914 20.7581 8.95262 21.2027 8.39323 21.7652C7.83383 22.3277 7.39292 22.9967 7.09656 23.7326C6.80021 24.4684 6.65443 25.2563 6.66785 26.0495V100.649C6.65461 101.429 6.795 102.203 7.081 102.928C7.36701 103.653 7.79302 104.314 8.33472 104.874C8.87642 105.435 9.52318 105.883 10.2381 106.193C10.953 106.503 11.722 106.67 12.5012 106.683H107.501C108.28 106.67 109.049 106.503 109.764 106.193C110.479 105.883 111.126 105.435 111.668 104.874C112.209 104.314 112.635 103.653 112.921 102.928C113.207 102.203 113.348 101.429 113.335 100.649V26.0495C113.348 25.2703 113.207 24.4961 112.921 23.7711C112.635 23.0462 112.209 22.3847 111.668 21.8244C111.126 21.2642 110.479 20.8161 109.764 20.5058C109.049 20.1956 108.28 20.0292 107.501 20.0161ZM33.3345 86.6828H26.6678V80.0161H33.3345V86.6828ZM33.3345 70.0161H26.6678V63.3495H33.3345V70.0161ZM33.3345 53.3495H26.6678V46.6828H33.3345V53.3495ZM53.3345 86.6828H46.6679V80.0161H53.3345V86.6828ZM53.3345 70.0161H46.6679V63.3495H53.3345V70.0161ZM53.3345 53.3495H46.6679V46.6828H53.3345V53.3495ZM73.3345 86.6828H66.6679V80.0161H73.3345V86.6828ZM73.3345 70.0161H66.6679V63.3495H73.3345V70.0161ZM73.3345 53.3495H66.6679V46.6828H73.3345V53.3495ZM93.3345 86.6828H86.6678V80.0161H93.3345V86.6828ZM93.3345 70.0161H86.6678V63.3495H93.3345V70.0161ZM93.3345 53.3495H86.6678V46.6828H93.3345V53.3495Z"
        fill="#00FFC2" />
    <path
        d="M33.3333 33.3493C34.2174 33.3493 35.0652 32.9981 35.6904 32.373C36.3155 31.7479 36.6667 30.9 36.6667 30.016V10.016C36.6667 9.1319 36.3155 8.28405 35.6904 7.65893C35.0652 7.03381 34.2174 6.68262 33.3333 6.68262C32.4493 6.68262 31.6014 7.03381 30.9763 7.65893C30.3512 8.28405 30 9.1319 30 10.016V30.016C30 30.9 30.3512 31.7479 30.9763 32.373C31.6014 32.9981 32.4493 33.3493 33.3333 33.3493Z"
        fill="#00FFC2" />
    <path
        d="M86.6663 33.3493C87.5504 33.3493 88.3982 32.9981 89.0234 32.373C89.6485 31.7479 89.9997 30.9 89.9997 30.016V10.016C89.9997 9.1319 89.6485 8.28405 89.0234 7.65893C88.3982 7.03381 87.5504 6.68262 86.6663 6.68262C85.7823 6.68262 84.9344 7.03381 84.3093 7.65893C83.6842 8.28405 83.333 9.1319 83.333 10.016V30.016C83.333 30.9 83.6842 31.7479 84.3093 32.373C84.9344 32.9981 85.7823 33.3493 86.6663 33.3493Z"
        fill="#00FFC2" />
</svg>